<svg width="20" height="20" viewBox="0 0 20 20" fill="none" xmlns="http://www.w3.org/2000/svg">
<g id="Frame">
<path id="Vector" d="M6.20218 4.45831C6.73497 4.45831 7.22677 4.49954 7.67759 4.62321C8.12842 4.70566 8.49725 4.87056 8.82517 5.07669C9.153 5.28281 9.39892 5.57138 9.56283 5.9424C9.72675 6.31343 9.80875 6.7669 9.80875 7.2616C9.80875 7.83875 9.68583 8.3335 9.39892 8.7045C9.153 9.0755 8.74317 9.40533 8.25137 9.65266C8.94808 9.85875 9.48083 10.2298 9.80875 10.7245C10.1366 11.2192 10.3415 11.8376 10.3415 12.5384C10.3415 13.1156 10.2186 13.6102 10.0137 14.0225C9.80875 14.4347 9.48083 14.8057 9.112 15.0532C8.74317 15.3005 8.29235 15.5066 7.80055 15.6302C7.30874 15.7539 6.81694 15.8364 6.32513 15.8364H0.833333V4.45831H6.20218ZM5.87432 9.0755C6.32513 9.0755 6.69399 8.95183 6.98088 8.74575C7.26776 8.53958 7.39071 8.16855 7.39071 7.71508C7.39071 7.46773 7.34972 7.22038 7.26776 7.05548C7.18579 6.89058 7.06284 6.7669 6.89891 6.64323C6.73498 6.56078 6.57104 6.47833 6.36612 6.4371C6.1612 6.39588 5.95628 6.39588 5.71038 6.39588H3.33333V9.0755H5.87432ZM5.99727 13.9401C6.24317 13.9401 6.48907 13.8988 6.69399 13.8576C6.89891 13.8164 7.10382 13.7339 7.26776 13.6102C7.43169 13.4866 7.55464 13.3629 7.67759 13.1567C7.75957 12.9507 7.84153 12.7033 7.84153 12.4147C7.84153 11.8376 7.6776 11.4253 7.34972 11.1367C7.02186 10.8894 6.57104 10.7657 6.03825 10.7657H3.33333V13.9401H5.99727ZM13.9071 13.8988C14.235 14.2287 14.7267 14.3935 15.3825 14.3935C15.8333 14.3935 16.2432 14.2698 16.571 14.0637C16.8989 13.8164 17.1038 13.569 17.1858 13.3217H19.194C18.8661 14.3111 18.3743 15.0119 17.7186 15.4654C17.0628 15.8777 16.2842 16.125 15.3415 16.125C14.6857 16.125 14.112 16.0013 13.5792 15.7952C13.0464 15.5891 12.6366 15.3005 12.2678 14.8882C11.8989 14.5172 11.612 14.0637 11.4481 13.5278C11.2432 12.9919 11.1612 12.4147 11.1612 11.7552C11.1612 11.1367 11.2432 10.5596 11.4481 10.0237C11.653 9.48775 11.9399 9.03425 12.3087 8.622C12.6776 8.251 13.1284 7.9212 13.6202 7.71508C14.153 7.50895 14.6857 7.38528 15.3415 7.38528C16.0382 7.38528 16.653 7.50896 17.1858 7.79753C17.7186 8.08611 18.1284 8.41591 18.4562 8.91058C18.7842 9.36408 19.0301 9.9 19.194 10.4772C19.2759 11.0543 19.3169 11.6314 19.2759 12.2911H13.3333C13.3333 12.9507 13.5792 13.569 13.9071 13.8988ZM16.4891 9.57025C16.2022 9.28166 15.7513 9.11675 15.2186 9.11675C14.8497 9.11675 14.5628 9.19916 14.3169 9.32283C14.071 9.4465 13.9071 9.61141 13.7432 9.77633C13.5792 9.94125 13.4972 10.1473 13.4562 10.3535C13.4153 10.5596 13.3743 10.7245 13.3743 10.8894H17.0628C16.9809 10.271 16.7759 9.85875 16.4891 9.57025ZM12.8825 5.24158H17.4727V6.35465H12.8825V5.24158Z" fill="white"/>
</g>
</svg>
