<svg width="36" height="36" viewBox="0 0 36 36" fill="none" xmlns="http://www.w3.org/2000/svg">
<g id="Frame" clip-path="url(#clip0_63_177)">
<path id="Vector" d="M15 30C15 29.6022 15.158 29.2206 15.4393 28.9393C15.7206 28.658 16.1022 28.5 16.5 28.5H19.5C19.8978 28.5 20.2794 28.658 20.5607 28.9393C20.842 29.2206 21 29.6022 21 30V31.5C21 31.8978 20.842 32.2794 20.5607 32.5607C20.2794 32.842 19.8978 33 19.5 33H16.5C16.1022 33 15.7206 32.842 15.4393 32.5607C15.158 32.2794 15 31.8978 15 31.5V30Z" stroke="black" stroke-width="2" stroke-linecap="round" stroke-linejoin="round"/>
<path id="Vector_2" d="M18 24C22.971 24 27 16.971 27 12C27 9.61305 26.0518 7.32387 24.364 5.63604C22.6761 3.94821 20.3869 3 18 3C15.6131 3 13.3239 3.94821 11.636 5.63604C9.94821 7.32387 9 9.61305 9 12C9 16.971 13.029 24 18 24Z" stroke="black" stroke-width="2" stroke-linecap="round" stroke-linejoin="round"/>
<path id="Vector_3" d="M15 13.5C15 16.2848 15.3161 18.9555 15.8787 20.9246C16.4413 22.8938 17.2044 24 18 24C18.7956 24 19.5587 22.8938 20.1213 20.9246C20.6839 18.9555 21 16.2848 21 13.5C21 10.7152 20.6839 8.04451 20.1213 6.07538C19.5587 4.10625 18.7956 3 18 3C17.2044 3 16.4413 4.10625 15.8787 6.07538C15.3161 8.04451 15 10.7152 15 13.5Z" stroke="black" stroke-width="2" stroke-linecap="round" stroke-linejoin="round"/>
</g>
<defs>
<clipPath id="clip0_63_177">
<rect width="36" height="36" fill="white"/>
</clipPath>
</defs>
</svg>
