<svg width="20" height="20" viewBox="0 0 20 20" fill="none" xmlns="http://www.w3.org/2000/svg">
<g id="Frame">
<path id="Vector" d="M16.6573 9.64302C16.5858 8.28763 16.1094 7.03956 15.3469 6.0175C15.1458 6.23675 14.8988 6.47485 14.5798 6.74301C13.8234 7.37884 12.9073 7.95258 11.8195 8.41752C11.9582 8.70885 12.0858 8.9916 12.198 9.25819L12.199 9.26044C12.221 9.31185 12.2399 9.35885 12.2768 9.45152C12.2816 9.46352 12.2861 9.47477 12.2904 9.48544C13.5518 9.34352 14.8813 9.39577 16.1708 9.57044C16.3422 9.5936 16.5042 9.61794 16.6573 9.64302ZM8.837 3.43444C8.98192 3.63853 9.1335 3.85718 9.31692 4.12817C9.82742 4.88244 10.33 5.67828 10.8003 6.49591C10.8958 6.66182 10.9892 6.82743 11.0803 6.99262C12.0994 6.59163 12.9413 6.0857 13.6198 5.52074C13.8943 5.29221 14.1153 5.07752 14.2836 4.89145C13.1251 3.919 11.6309 3.33335 10 3.33335C9.60333 3.33335 9.21467 3.368 8.837 3.43444ZM3.54388 8.33131C4.02621 8.32045 4.57056 8.2912 5.24419 8.22934C6.58353 8.10634 7.95118 7.88543 9.29575 7.54397C8.80992 6.6977 8.2824 5.85278 7.74543 5.04484C7.48733 4.65648 7.23631 4.29162 7.0457 4.02204C5.32951 4.8718 4.03162 6.43884 3.54388 8.33131ZM4.81972 14.1967C5.14259 13.7244 5.56718 13.1929 6.13164 12.6145C7.34333 11.3732 8.77383 10.4065 10.4283 9.87277C10.4514 9.86594 10.467 9.86135 10.48 9.85752C10.3425 9.55427 10.2135 9.28377 10.0836 9.02852C8.55358 9.47394 6.94192 9.75252 5.33566 9.89685C4.55266 9.96719 3.85004 9.99844 3.33333 10.0037C3.33418 11.5927 3.89096 13.0517 4.81972 14.1967ZM12.5038 16.1805C12.4168 15.7288 12.3058 15.2255 12.1583 14.645C11.8908 13.5927 11.5557 12.51 11.1442 11.4232C9.476 12.0286 8.14645 12.9145 7.11924 13.9708C6.6242 14.4798 6.26037 14.9614 6.02202 15.3503C7.13243 16.1773 8.50908 16.6667 10 16.6667C10.8855 16.6667 11.7308 16.494 12.5038 16.1805ZM14.0648 15.2845C15.3394 14.3027 16.2488 12.87 16.5543 11.2253C16.2711 11.1554 15.9117 11.0838 15.5163 11.0289C14.6463 10.9081 13.7512 10.8879 12.8674 11.0015C13.2444 12.0637 13.5535 13.111 13.8007 14.1134C13.9086 14.5512 13.9965 14.9465 14.0648 15.2845ZM10 18.3334C5.39763 18.3334 1.66667 14.6024 1.66667 10C1.66667 5.39765 5.39763 1.66669 10 1.66669C14.6023 1.66669 18.3333 5.39765 18.3333 10C18.3333 14.6024 14.6023 18.3334 10 18.3334Z" fill="white"/>
</g>
</svg>
