<svg width="36" height="36" viewBox="0 0 36 36" fill="none" xmlns="http://www.w3.org/2000/svg">
<g id="Frame" clip-path="url(#clip0_124_125)">
<path id="Vector" d="M15 28.5H7.5C6.70435 28.5 5.94129 28.1839 5.37868 27.6213C4.81607 27.0587 4.5 26.2956 4.5 25.5V10.5C4.5 9.70435 4.81607 8.94129 5.37868 8.37868C5.94129 7.81607 6.70435 7.5 7.5 7.5H28.5C29.2956 7.5 30.0587 7.81607 30.6213 8.37868C31.1839 8.94129 31.5 9.70435 31.5 10.5V17.25" stroke="black" stroke-width="2" stroke-linecap="round" stroke-linejoin="round"/>
<path id="Vector_2" d="M4.5 10.5L18 19.5L31.5 10.5" stroke="black" stroke-width="2" stroke-linecap="round" stroke-linejoin="round"/>
<path id="Vector_3" d="M26.7 31.2252L23.442 32.9322C23.3453 32.9825 23.2365 33.005 23.1278 32.9971C23.0191 32.9892 22.9148 32.9512 22.8264 32.8874C22.738 32.8236 22.6691 32.7365 22.6274 32.6358C22.5856 32.5351 22.5727 32.4248 22.59 32.3172L23.2125 28.7007L20.577 26.1402C20.4983 26.0642 20.4426 25.9675 20.4163 25.8614C20.3899 25.7552 20.3939 25.6437 20.4278 25.5397C20.4618 25.4357 20.5243 25.3433 20.6082 25.2731C20.6921 25.2029 20.7941 25.1577 20.9025 25.1427L24.5445 24.6147L26.1735 21.3252C26.2222 21.2272 26.2973 21.1448 26.3903 21.0872C26.4833 21.0296 26.5906 20.999 26.7 20.999C26.8094 20.999 26.9167 21.0296 27.0097 21.0872C27.1027 21.1448 27.1778 21.2272 27.2265 21.3252L28.8555 24.6147L32.4975 25.1427C32.6056 25.1583 32.7071 25.2037 32.7907 25.274C32.8742 25.3443 32.9365 25.4365 32.9703 25.5403C33.0042 25.6441 33.0083 25.7553 32.9823 25.8613C32.9563 25.9673 32.9011 26.0639 32.823 26.1402L30.1875 28.7007L30.8085 32.3157C30.8271 32.4235 30.8152 32.5344 30.774 32.6357C30.7328 32.7371 30.664 32.8248 30.5754 32.889C30.4868 32.9532 30.382 32.9913 30.2729 32.999C30.1637 33.0066 30.0546 32.9835 29.958 32.9322L26.7 31.2252Z" stroke="black" stroke-width="2" stroke-linecap="round" stroke-linejoin="round"/>
</g>
<defs>
<clipPath id="clip0_124_125">
<rect width="36" height="36" fill="white"/>
</clipPath>
</defs>
</svg>
