<svg width="60" height="60" viewBox="0 0 60 60" fill="none" xmlns="http://www.w3.org/2000/svg">
<rect width="60" height="60" rx="10" fill="white"/>
<path fill-rule="evenodd" clip-rule="evenodd" d="M18.3067 12.1042C13.741 12.6905 9.78393 16.0161 8.38585 20.4417C8.01255 21.6234 7.86401 22.6579 7.86447 24.073C7.86557 27.2801 8.99942 30.071 11.2431 32.3888C12.6562 33.8488 14.1985 34.8311 16.0498 35.4501C17.8709 36.0592 17.9675 36.0646 26.4195 36.0333C35.0068 36.0016 34.3504 36.0576 36.0595 35.2101C36.9122 34.7873 37.1301 34.6255 37.9465 33.8094C38.7077 33.0484 38.9439 32.7413 39.295 32.0569C39.706 31.2553 40.0905 30.1069 40.1074 29.6293C40.1119 29.5021 40.173 29.7146 40.243 30.1018C40.4503 31.2474 41.0168 32.56 41.7024 33.4835C42.4245 34.4561 43.666 35.4972 44.7542 36.0425C45.3942 36.3632 46.764 36.7849 47.2018 36.7959C47.3852 36.8005 47.1873 36.8802 46.6571 37.015C44.0683 37.6741 42.2026 39.1114 41.0428 41.3408C40.6446 42.1061 40.1965 43.4842 40.1835 43.983C40.1787 44.1693 40.1274 44.0445 40.0387 43.6299C39.7042 42.0692 39.0264 40.8352 37.8945 39.7266C36.7649 38.6202 35.4075 37.9237 33.8609 37.6568C33.153 37.5346 31.814 37.5199 23.9242 37.5476C13.9484 37.5827 14.4951 37.5542 12.7398 38.1305C8.49052 39.5258 5.35429 43.5617 5.0594 48.0143L5 48.9115L23.3988 48.8831C43.828 48.8517 42.0332 48.9067 44.0009 48.2524C47.5429 47.0746 50.4734 44.0775 51.6143 40.4658C51.986 39.2893 52.1359 38.2488 52.1376 36.8345C52.1415 33.6492 50.9961 30.8317 48.7571 28.5187C47.344 27.0587 45.8017 26.0765 43.9504 25.4574C42.1293 24.8483 42.0327 24.8429 33.5807 24.8742C24.9933 24.906 25.6498 24.85 23.9406 25.6975C23.088 26.1203 22.87 26.282 22.0537 27.0981C21.2925 27.8591 21.0563 28.1662 20.7052 28.8507C20.2941 29.6523 19.9097 30.8006 19.8927 31.2782C19.8882 31.4055 19.8272 31.1929 19.7571 30.8058C19.5499 29.6602 18.9834 28.3476 18.2977 27.424C17.5756 26.4514 16.3342 25.4104 15.246 24.865C14.606 24.5443 13.2362 24.1227 12.7984 24.1116C12.615 24.107 12.8129 24.0274 13.343 23.8925C15.9319 23.2335 17.7976 21.7961 18.9574 19.5667C19.3556 18.8015 19.8037 17.4233 19.8167 16.9245C19.8215 16.7382 19.8727 16.8631 19.9615 17.2776C20.2835 18.78 20.9631 20.0475 22.0082 21.0948C23.0091 22.0977 24.1359 22.7522 25.5064 23.1266L26.2818 23.3385H35.6464C45.9329 23.3385 45.5068 23.3592 47.2603 22.7747C51.525 21.3533 54.6502 17.337 54.9407 12.9047L55 12L36.9685 12.0116C27.0512 12.018 18.6534 12.0597 18.3067 12.1042Z" fill="black"/>
</svg>
