<svg width="24" height="24" viewBox="0 0 24 24" fill="none" xmlns="http://www.w3.org/2000/svg">
<g clip-path="url(#clip0_146_12)">
<mask id="mask0_146_12" style="mask-type:luminance" maskUnits="userSpaceOnUse" x="0" y="0" width="24" height="24">
<path d="M24 0H0V24H24V0Z" fill="white"/>
</mask>
<g mask="url(#mask0_146_12)">
<path d="M19 8.71001L13.667 4.56201C13.199 4.19792 12.623 4.00024 12.03 4.00024C11.437 4.00024 10.861 4.19792 10.393 4.56201L5.05903 8.71001C4.73847 8.95929 4.47912 9.27854 4.30078 9.64336C4.12245 10.0082 4.02984 10.4089 4.03003 10.815V18.015C4.03003 18.5454 4.24074 19.0541 4.61582 19.4292C4.99089 19.8043 5.4996 20.015 6.03003 20.015H18.03C18.5604 20.015 19.0691 19.8043 19.4442 19.4292C19.8193 19.0541 20.03 18.5454 20.03 18.015V10.815C20.03 9.99201 19.65 9.21501 19 8.71001Z" stroke="#838485" stroke-width="2" stroke-linecap="round" stroke-linejoin="round"/>
<path d="M16 15C13.79 16.333 10.208 16.333 8 15" stroke="#838485" stroke-width="2" stroke-linecap="round" stroke-linejoin="round"/>
</g>
</g>
<defs>
<clipPath id="clip0_146_12">
<rect width="24" height="24" fill="white"/>
</clipPath>
</defs>
</svg>
