<svg width="20" height="20" viewBox="0 0 20 20" fill="none" xmlns="http://www.w3.org/2000/svg">
<g id="Frame">
<path id="Vector" d="M10.0008 7.50002C8.61967 7.50002 7.50081 8.61927 7.50081 10C7.50081 11.3811 8.62008 12.5 10.0008 12.5C11.3819 12.5 12.5008 11.3808 12.5008 10C12.5008 8.61894 11.3816 7.50002 10.0008 7.50002ZM10.0008 5.83335C12.3012 5.83335 14.1675 7.6976 14.1675 10C14.1675 12.3004 12.3032 14.1667 10.0008 14.1667C7.70042 14.1667 5.83415 12.3024 5.83415 10C5.83415 7.69963 7.6984 5.83335 10.0008 5.83335ZM15.4175 5.62431C15.4175 6.1994 14.9502 6.666 14.3758 6.666C13.8007 6.666 13.3342 6.19869 13.3342 5.62431C13.3342 5.04994 13.8014 4.58335 14.3758 4.58335C14.9494 4.58263 15.4175 5.04994 15.4175 5.62431ZM10.0008 3.33335C7.93875 3.33335 7.60265 3.33881 6.64356 3.38152C5.99012 3.4122 5.55211 3.50008 5.14513 3.65808C4.78346 3.79835 4.52257 3.96584 4.2446 4.24381C3.96556 4.52285 3.79836 4.78305 3.65866 5.14488C3.5003 5.55279 3.41244 5.99011 3.38231 6.64265C3.33919 7.56269 3.33415 7.88423 3.33415 10C3.33415 12.0621 3.33961 12.3982 3.38231 13.3572C3.413 14.0104 3.501 14.449 3.65861 14.855C3.79925 15.2172 3.96708 15.4787 4.24371 15.7554C4.52386 16.0351 4.78482 16.2029 5.14322 16.3412C5.55516 16.5004 5.9929 16.5884 6.64343 16.6185C7.56348 16.6616 7.88502 16.6667 10.0008 16.6667C12.0629 16.6667 12.399 16.6612 13.358 16.6185C14.0097 16.5879 14.4487 16.4997 14.8558 16.3422C15.217 16.2019 15.4793 16.0335 15.7562 15.7571C16.0363 15.4765 16.2037 15.2162 16.3422 14.8569C16.5011 14.4465 16.5892 14.0082 16.6193 13.3574C16.6624 12.4374 16.6675 12.1158 16.6675 10C16.6675 7.93795 16.662 7.60186 16.6193 6.64283C16.5887 5.9909 16.5004 5.55126 16.3427 5.14434C16.2028 4.78367 16.0347 4.52198 15.757 4.24381C15.4775 3.96431 15.218 3.79746 14.8559 3.65787C14.4483 3.49964 14.0103 3.41165 13.3582 3.38153C12.4382 3.3384 12.1166 3.33335 10.0008 3.33335ZM10.0008 1.66669C12.2647 1.66669 12.5473 1.67502 13.4362 1.71669C14.323 1.75766 14.9279 1.89794 15.4592 2.10419C16.0084 2.316 16.4723 2.6021 16.9355 3.0653C17.398 3.5285 17.6842 3.99377 17.8967 4.54169C18.1022 5.07225 18.2425 5.6778 18.2842 6.5646C18.3237 7.4535 18.3342 7.73613 18.3342 10C18.3342 12.2639 18.3258 12.5465 18.2842 13.4354C18.2432 14.3223 18.1022 14.9271 17.8967 15.4584C17.6848 16.0077 17.398 16.4715 16.9355 16.9348C16.4723 17.3973 16.0063 17.6834 15.4592 17.8959C14.9279 18.1014 14.323 18.2417 13.4362 18.2834C12.5473 18.3229 12.2647 18.3334 10.0008 18.3334C7.73692 18.3334 7.45428 18.325 6.5654 18.2834C5.67859 18.2424 5.07442 18.1014 4.54248 17.8959C3.99386 17.684 3.52928 17.3973 3.06609 16.9348C2.6029 16.4715 2.31748 16.0056 2.10498 15.4584C1.89873 14.9271 1.75915 14.3223 1.71748 13.4354C1.6779 12.5465 1.66748 12.2639 1.66748 10C1.66748 7.73613 1.67581 7.4535 1.71748 6.5646C1.75845 5.6771 1.89873 5.07294 2.10498 4.54169C2.31678 3.99308 2.6029 3.5285 3.06609 3.0653C3.52928 2.6021 3.99456 2.31669 4.54248 2.10419C5.07373 1.89794 5.6779 1.75835 6.5654 1.71669C7.45428 1.6771 7.73692 1.66669 10.0008 1.66669Z" fill="white"/>
</g>
</svg>
