<svg width="20" height="20" viewBox="0 0 20 20" fill="none" xmlns="http://www.w3.org/2000/svg">
<g id="Frame">
<path id="Vector" d="M5.78373 4.16663C5.78342 4.84522 5.37173 5.45587 4.74278 5.71063C4.11383 5.96539 3.39322 5.8134 2.92075 5.32631C2.44827 4.83922 2.31829 4.11431 2.59208 3.49341C2.86588 2.87251 3.48878 2.4796 4.16706 2.49996C5.06796 2.527 5.78414 3.26533 5.78373 4.16663ZM5.83373 7.06663H2.5004V17.4999H5.83373V7.06663ZM11.1004 7.06663H7.78373V17.4999H11.0671V12.0249C11.0671 8.97494 15.0421 8.6916 15.0421 12.0249V17.4999H18.3337V10.8916C18.3337 5.74996 12.4504 5.94163 11.0671 8.4666L11.1004 7.06663Z" fill="white"/>
</g>
</svg>
