<svg width="275" height="60" viewBox="0 0 275 60" fill="none" xmlns="http://www.w3.org/2000/svg">
<path fill-rule="evenodd" clip-rule="evenodd" d="M21.823 0.169386C14.3353 1.12242 7.84565 6.52826 5.5528 13.7221C4.94059 15.643 4.69697 17.3246 4.69772 19.6248C4.69953 24.8379 6.55905 29.3746 10.2386 33.1423C12.5562 35.5155 15.0856 37.1121 18.1216 38.1185C21.1083 39.1085 21.2667 39.1173 35.128 39.0664C49.2112 39.0148 48.1347 39.1058 50.9376 37.7282C52.336 37.041 52.6934 36.778 54.0323 35.4514C55.2806 34.2144 55.668 33.7152 56.2438 32.6026C56.9179 31.2996 57.5483 29.433 57.5762 28.6566C57.5836 28.4498 57.6837 28.7953 57.7986 29.4246C58.1384 31.2868 59.0676 33.4205 60.192 34.9216C61.3762 36.5027 63.4122 38.1949 65.1969 39.0813C66.2465 39.6026 68.493 40.2881 69.2109 40.306C69.5117 40.3134 69.1871 40.443 68.3177 40.6622C64.072 41.7334 61.0123 44.0699 59.1102 47.6939C58.4572 48.9377 57.7222 51.178 57.7009 51.9888C57.693 52.2916 57.609 52.0886 57.4634 51.4148C56.9149 48.8778 55.8032 46.8718 53.947 45.0698C52.0945 43.2715 49.8683 42.1392 47.3318 41.7054C46.171 41.5067 43.9749 41.4829 31.0357 41.5279C14.6754 41.585 15.5719 41.5387 12.6933 42.4755C5.72445 44.7434 0.581041 51.3039 0.0974158 58.5416L0 60L30.174 59.9539C63.678 59.9028 60.7345 59.9922 63.9615 58.9286C69.7704 57.014 74.5764 52.1423 76.4475 46.2715C77.057 44.359 77.3029 42.6677 77.3057 40.3688C77.3121 35.191 75.4336 30.6111 71.7617 26.8513C69.4441 24.4781 66.9147 22.8814 63.8787 21.8751C60.892 20.8851 60.7336 20.8763 46.8723 20.9272C32.7891 20.9788 33.8656 20.8878 31.0627 22.2654C29.6643 22.9526 29.3069 23.2156 27.968 24.5422C26.7197 25.7792 26.3323 26.2784 25.7565 27.3909C25.0824 28.6939 24.452 30.5606 24.4241 31.3369C24.4167 31.5438 24.3166 31.1983 24.2017 30.569C23.8619 28.7068 22.9327 26.5731 21.8083 25.0719C20.6241 23.4909 18.5881 21.7987 16.8034 20.9122C15.7538 20.391 13.5073 19.7055 12.7894 19.6876C12.4886 19.6801 12.8132 19.5506 13.6826 19.3314C17.9283 18.2601 20.988 15.9237 22.8901 12.2997C23.5431 11.0558 24.2781 8.81562 24.2994 8.00481C24.3073 7.70201 24.3913 7.90498 24.5369 8.57878C25.0649 11.0209 26.1794 13.0813 27.8935 14.7836C29.535 16.4139 31.3829 17.4778 33.6304 18.0864L34.9021 18.4309H50.2601C67.1299 18.4309 66.4311 18.4644 69.307 17.5144C76.301 15.2039 81.4263 8.67534 81.9027 1.47059L82 0L52.4283 0.018805C36.1639 0.0292517 22.3916 0.097006 21.823 0.169386Z" fill="black"/>
<path d="M92.648 42L99.272 16.8H107.552L114.176 42H109.28L107.912 36.456H98.912L97.544 42H92.648ZM100.028 32.064H106.796L103.736 19.788H103.088L100.028 32.064ZM117.336 42V24.144H121.8V26.16H122.448C122.712 25.44 123.144 24.912 123.744 24.576C124.368 24.24 125.088 24.072 125.904 24.072H128.064V28.104H125.832C124.68 28.104 123.732 28.416 122.988 29.04C122.244 29.64 121.872 30.576 121.872 31.848V42H117.336ZM133.554 49.2V45.24H143.274C143.946 45.24 144.282 44.88 144.282 44.16V39.66H143.634C143.442 40.068 143.142 40.476 142.734 40.884C142.326 41.292 141.774 41.628 141.078 41.892C140.382 42.156 139.494 42.288 138.414 42.288C137.022 42.288 135.798 41.976 134.742 41.352C133.71 40.704 132.906 39.816 132.33 38.688C131.754 37.56 131.466 36.264 131.466 34.8V24.144H136.002V34.44C136.002 35.784 136.326 36.792 136.974 37.464C137.646 38.136 138.594 38.472 139.818 38.472C141.21 38.472 142.29 38.016 143.058 37.104C143.826 36.168 144.21 34.872 144.21 33.216V24.144H148.746V45.168C148.746 46.392 148.386 47.364 147.666 48.084C146.946 48.828 145.986 49.2 144.786 49.2H133.554ZM159.337 42.504C158.065 42.504 156.925 42.288 155.917 41.856C154.909 41.4 154.105 40.752 153.505 39.912C152.929 39.048 152.641 38.004 152.641 36.78C152.641 35.556 152.929 34.536 153.505 33.72C154.105 32.88 154.921 32.256 155.953 31.848C157.009 31.416 158.209 31.2 159.553 31.2H164.449V30.192C164.449 29.352 164.185 28.668 163.657 28.14C163.129 27.588 162.289 27.312 161.137 27.312C160.009 27.312 159.169 27.576 158.617 28.104C158.065 28.608 157.705 29.268 157.537 30.084L153.361 28.68C153.649 27.768 154.105 26.94 154.729 26.196C155.377 25.428 156.229 24.816 157.285 24.36C158.365 23.88 159.673 23.64 161.209 23.64C163.561 23.64 165.421 24.228 166.789 25.404C168.157 26.58 168.841 28.284 168.841 30.516V37.176C168.841 37.896 169.177 38.256 169.849 38.256H171.289V42H168.265C167.377 42 166.645 41.784 166.069 41.352C165.493 40.92 165.205 40.344 165.205 39.624V39.588H164.521C164.425 39.876 164.209 40.26 163.873 40.74C163.537 41.196 163.009 41.604 162.289 41.964C161.569 42.324 160.585 42.504 159.337 42.504ZM160.129 38.832C161.401 38.832 162.433 38.484 163.225 37.788C164.041 37.068 164.449 36.12 164.449 34.944V34.584H159.877C159.037 34.584 158.377 34.764 157.897 35.124C157.417 35.484 157.177 35.988 157.177 36.636C157.177 37.284 157.429 37.812 157.933 38.22C158.437 38.628 159.169 38.832 160.129 38.832ZM192.351 42.504C190.407 42.504 188.691 42.156 187.203 41.46C185.715 40.764 184.551 39.768 183.711 38.472C182.871 37.176 182.451 35.616 182.451 33.792V32.784H187.131V33.792C187.131 35.304 187.599 36.444 188.535 37.212C189.471 37.956 190.743 38.328 192.351 38.328C193.983 38.328 195.195 38.004 195.987 37.356C196.803 36.708 197.211 35.88 197.211 34.872C197.211 34.176 197.007 33.612 196.599 33.18C196.215 32.748 195.639 32.4 194.871 32.136C194.127 31.848 193.215 31.584 192.135 31.344L191.307 31.164C189.579 30.78 188.091 30.3 186.843 29.724C185.619 29.124 184.671 28.344 183.999 27.384C183.351 26.424 183.027 25.176 183.027 23.64C183.027 22.104 183.387 20.796 184.107 19.716C184.851 18.612 185.883 17.772 187.203 17.196C188.547 16.596 190.119 16.296 191.919 16.296C193.719 16.296 195.315 16.608 196.707 17.232C198.123 17.832 199.227 18.744 200.019 19.968C200.835 21.168 201.243 22.68 201.243 24.504V25.584H196.563V24.504C196.563 23.544 196.371 22.776 195.987 22.2C195.627 21.6 195.099 21.168 194.403 20.904C193.707 20.616 192.879 20.472 191.919 20.472C190.479 20.472 189.411 20.748 188.715 21.3C188.043 21.828 187.707 22.56 187.707 23.496C187.707 24.12 187.863 24.648 188.175 25.08C188.511 25.512 189.003 25.872 189.651 26.16C190.299 26.448 191.127 26.7 192.135 26.916L192.963 27.096C194.763 27.48 196.323 27.972 197.643 28.572C198.987 29.172 200.031 29.964 200.775 30.948C201.519 31.932 201.891 33.192 201.891 34.728C201.891 36.264 201.495 37.62 200.703 38.796C199.935 39.948 198.831 40.86 197.391 41.532C195.975 42.18 194.295 42.504 192.351 42.504ZM212.419 42C211.243 42 210.283 41.64 209.539 40.92C208.819 40.176 208.459 39.192 208.459 37.968V27.888H203.995V24.144H208.459V18.6H212.995V24.144H217.891V27.888H212.995V37.176C212.995 37.896 213.331 38.256 214.003 38.256H217.459V42H212.419ZM227.541 42.504C226.269 42.504 225.129 42.288 224.121 41.856C223.113 41.4 222.309 40.752 221.709 39.912C221.133 39.048 220.845 38.004 220.845 36.78C220.845 35.556 221.133 34.536 221.709 33.72C222.309 32.88 223.125 32.256 224.157 31.848C225.213 31.416 226.413 31.2 227.757 31.2H232.653V30.192C232.653 29.352 232.389 28.668 231.861 28.14C231.333 27.588 230.493 27.312 229.341 27.312C228.213 27.312 227.373 27.576 226.821 28.104C226.269 28.608 225.909 29.268 225.741 30.084L221.565 28.68C221.853 27.768 222.309 26.94 222.933 26.196C223.581 25.428 224.433 24.816 225.489 24.36C226.569 23.88 227.877 23.64 229.413 23.64C231.765 23.64 233.625 24.228 234.993 25.404C236.361 26.58 237.045 28.284 237.045 30.516V37.176C237.045 37.896 237.381 38.256 238.053 38.256H239.493V42H236.469C235.581 42 234.849 41.784 234.273 41.352C233.697 40.92 233.409 40.344 233.409 39.624V39.588H232.725C232.629 39.876 232.413 40.26 232.077 40.74C231.741 41.196 231.213 41.604 230.493 41.964C229.773 42.324 228.789 42.504 227.541 42.504ZM228.333 38.832C229.605 38.832 230.637 38.484 231.429 37.788C232.245 37.068 232.653 36.12 232.653 34.944V34.584H228.081C227.241 34.584 226.581 34.764 226.101 35.124C225.621 35.484 225.381 35.988 225.381 36.636C225.381 37.284 225.633 37.812 226.137 38.22C226.641 38.628 227.373 38.832 228.333 38.832ZM242.809 42V24.144H247.273V26.16H247.921C248.185 25.44 248.617 24.912 249.217 24.576C249.841 24.24 250.561 24.072 251.377 24.072H253.537V28.104H251.305C250.153 28.104 249.205 28.416 248.461 29.04C247.717 29.64 247.345 30.576 247.345 31.848V42H242.809ZM257.083 42V16.8H261.619V30.732H262.267L268.171 24.144H274.075L265.831 32.784L274.363 42H268.531L262.267 34.908H261.619V42H257.083Z" fill="black"/>
</svg>
