<svg width="36" height="36" viewBox="0 0 36 36" fill="none" xmlns="http://www.w3.org/2000/svg">
<g id="Frame">
<path id="Vector" d="M21 19.5L27 19.5C27.3978 19.5 27.7794 19.658 28.0607 19.9393C28.342 20.2206 28.5 20.6022 28.5 21L28.5 25.5C28.5 25.8978 28.342 26.2794 28.0607 26.5607C27.7794 26.842 27.3978 27 27 27L22.5 27C22.1022 27 21.7206 26.842 21.4393 26.5607C21.158 26.2794 21 25.8978 21 25.5L21 16.5C21 12.4995 22.9995 10.0005 27 9" stroke="black" stroke-width="2" stroke-linecap="round" stroke-linejoin="round"/>
<path id="Vector_2" d="M7.5 19.5L13.5 19.5C13.8978 19.5 14.2794 19.658 14.5607 19.9393C14.842 20.2206 15 20.6022 15 21L15 25.5C15 25.8978 14.842 26.2794 14.5607 26.5607C14.2794 26.842 13.8978 27 13.5 27L9 27C8.60218 27 8.22064 26.842 7.93934 26.5607C7.65803 26.2794 7.5 25.8978 7.5 25.5L7.5 16.5C7.5 12.4995 9.4995 10.0005 13.5 9" stroke="black" stroke-width="2" stroke-linecap="round" stroke-linejoin="round"/>
</g>
</svg>
