<svg width="36" height="36" viewBox="0 0 36 36" fill="none" xmlns="http://www.w3.org/2000/svg">
<g id="Frame" clip-path="url(#clip0_63_140)">
<path id="Vector" d="M4.5 6C4.5 5.60218 4.65804 5.22064 4.93934 4.93934C5.22064 4.65804 5.60218 4.5 6 4.5H9C9.39782 4.5 9.77936 4.65804 10.0607 4.93934C10.342 5.22064 10.5 5.60218 10.5 6V9C10.5 9.39782 10.342 9.77936 10.0607 10.0607C9.77936 10.342 9.39782 10.5 9 10.5H6C5.60218 10.5 5.22064 10.342 4.93934 10.0607C4.65804 9.77936 4.5 9.39782 4.5 9V6Z" stroke="black" stroke-width="2" stroke-linecap="round" stroke-linejoin="round"/>
<path id="Vector_2" d="M25.5 27C25.5 26.6022 25.658 26.2206 25.9393 25.9393C26.2206 25.658 26.6022 25.5 27 25.5H30C30.3978 25.5 30.7794 25.658 31.0607 25.9393C31.342 26.2206 31.5 26.6022 31.5 27V30C31.5 30.3978 31.342 30.7794 31.0607 31.0607C30.7794 31.342 30.3978 31.5 30 31.5H27C26.6022 31.5 26.2206 31.342 25.9393 31.0607C25.658 30.7794 25.5 30.3978 25.5 30V27Z" stroke="black" stroke-width="2" stroke-linecap="round" stroke-linejoin="round"/>
<path id="Vector_3" d="M10.5 7.5H21" stroke="black" stroke-width="2" stroke-linecap="round" stroke-linejoin="round"/>
<path id="Vector_4" d="M15 28.5H25.5" stroke="black" stroke-width="2" stroke-linecap="round" stroke-linejoin="round"/>
<path id="Vector_5" d="M12 28.5C12 28.8978 12.158 29.2794 12.4393 29.5607C12.7206 29.842 13.1022 30 13.5 30C13.8978 30 14.2794 29.842 14.5607 29.5607C14.842 29.2794 15 28.8978 15 28.5C15 28.1022 14.842 27.7206 14.5607 27.4393C14.2794 27.158 13.8978 27 13.5 27C13.1022 27 12.7206 27.158 12.4393 27.4393C12.158 27.7206 12 28.1022 12 28.5Z" stroke="black" stroke-width="2" stroke-linecap="round" stroke-linejoin="round"/>
<path id="Vector_6" d="M21 7.5C21 7.89782 21.158 8.27936 21.4393 8.56066C21.7206 8.84196 22.1022 9 22.5 9C22.8978 9 23.2794 8.84196 23.5607 8.56066C23.842 8.27936 24 7.89782 24 7.5C24 7.10218 23.842 6.72064 23.5607 6.43934C23.2794 6.15804 22.8978 6 22.5 6C22.1022 6 21.7206 6.15804 21.4393 6.43934C21.158 6.72064 21 7.10218 21 7.5Z" stroke="black" stroke-width="2" stroke-linecap="round" stroke-linejoin="round"/>
<path id="Vector_7" d="M10.5 8.25C11.4849 8.25 12.4602 8.50219 13.3701 8.99217C14.2801 9.48216 15.1069 10.2003 15.8033 11.1057C16.4997 12.0111 17.0522 13.0859 17.4291 14.2688C17.806 15.4518 18 16.7196 18 18C18 20.5859 18.7902 23.0658 20.1967 24.8943C21.6032 26.7228 23.5109 27.75 25.5 27.75" stroke="black" stroke-width="2" stroke-linecap="round" stroke-linejoin="round"/>
</g>
<defs>
<clipPath id="clip0_63_140">
<rect width="36" height="36" fill="white"/>
</clipPath>
</defs>
</svg>
