<svg width="36" height="36" viewBox="0 0 36 36" fill="none" xmlns="http://www.w3.org/2000/svg">
<g id="Frame" clip-path="url(#clip0_65_196)">
<path id="Vector" d="M22.5 14.9999L29.3295 11.5859C29.5581 11.4717 29.8122 11.4178 30.0675 11.4293C30.3228 11.4408 30.571 11.5173 30.7884 11.6516C31.0058 11.786 31.1853 11.9736 31.3099 12.1968C31.4344 12.42 31.4999 12.6713 31.5 12.9269V23.0729C31.4999 23.3285 31.4344 23.5798 31.3099 23.803C31.1853 24.0262 31.0058 24.2139 30.7884 24.3482C30.571 24.4826 30.3228 24.5591 30.0675 24.5706C29.8122 24.5821 29.5581 24.5282 29.3295 24.4139L22.5 20.9999V14.9999Z" stroke="black" stroke-width="2" stroke-linecap="round" stroke-linejoin="round"/>
<path id="Vector_2" d="M4.5 12C4.5 11.2044 4.81607 10.4413 5.37868 9.87868C5.94129 9.31607 6.70435 9 7.5 9H19.5C20.2956 9 21.0587 9.31607 21.6213 9.87868C22.1839 10.4413 22.5 11.2044 22.5 12V24C22.5 24.7956 22.1839 25.5587 21.6213 26.1213C21.0587 26.6839 20.2956 27 19.5 27H7.5C6.70435 27 5.94129 26.6839 5.37868 26.1213C4.81607 25.5587 4.5 24.7956 4.5 24V12Z" stroke="black" stroke-width="2" stroke-linecap="round" stroke-linejoin="round"/>
</g>
<defs>
<clipPath id="clip0_65_196">
<rect width="36" height="36" fill="white"/>
</clipPath>
</defs>
</svg>
